<?xml version="1.0" encoding="UTF-8"?>
<svg id="Logo" xmlns="http://www.w3.org/2000/svg" viewBox="0 0 800 216">
  <defs>
    <style>
      .cls-1 {
        fill: #f88379;
      }

      .cls-1, .cls-2, .cls-3, .cls-4, .cls-5, .cls-6 {
        stroke-width: 0px;
      }

      .cls-2 {
        fill: #000;
      }

      .cls-3, .cls-7 {
        fill: #300;
      }

      .cls-8 {
        fill: none;
      }

      .cls-8, .cls-7, .cls-9, .cls-10, .cls-11 {
        stroke: #000;
        stroke-miterlimit: 10;
      }

      .cls-9 {
        fill: #774b3a;
      }

      .cls-10, .cls-5 {
        fill: #9fe2bf;
      }

      .cls-4 {
        fill: #d7bb9c;
      }

      .cls-11 {
        fill: #9fe2bf;
      }

      .cls-6 {
        fill: #fff9f1;
      }
    </style>
  </defs>
  <path class="cls-10" d="M65.75,142.63c-3.69,3.69-11.72,5.54-13.23,5.86-.16.02-.33.04-.49.06-6.46.3-5.58-.47-5.58-.47,0,0,9.79-7.83,10.4-10.06,0,0,4.8,2.56,8.9,4.61Z"/>
  <path class="cls-10" d="M96.76,161.9c-2.14,2.49-3.97,3.72-7.75,3.72s-5.5-4.39-5.5-7.22,2.17-8.84,2.17-8.84c0,0,5.31,1.28,6.45,1.47,1.14.19,7.83.81,7.83.81,0,0,.04,6.3-3.2,10.06Z"/>
  <path class="cls-11" d="M144.67,158.52c0,3.39-4.43,9.03-8.39,9.03s-8.59-3.26-8.59-7.29l-.6-7.81s6.52-.53,8.3-.78c1.78-.25,8.39-1.7,8.39-1.7,0,0,.89,5.17.89,8.55Z"/>
  <path class="cls-11" d="M169.77,156.43c0,7.48-4.07,8-5.33,8s-3.74-.78-5.19-2.7c-1.44-1.93-2.85-4.97-3.18-8.04-.25-2.28-.68-7.63-1.09-8.45l8.51-6.84s6.28,10.55,6.28,18.03Z"/>
  <path class="cls-10" d="M75.32,146.9s-3.41,9.41-5.67,12.63c-2.26,3.23-6.55,6.86-10.93,6.86s-4.11-4.26-4.11-4.26c0,0-.17-4.06,1.13-7.12,1.31-3.05,10.01-12.38,10.01-12.38,4.1,2.05,6.24,3.43,9.57,4.27Z"/>
  <polyline class="cls-4" points="60.98 129.05 58.6 133.56 56.85 138.02 62.08 140.76 74.03 146.53 92.14 151.02 112.04 152.78 132.49 151.98 143.78 149.97 154.76 145.34 163.49 138.4 164.35 136.34 160.82 127.9 159.62 127.07 148.71 133.89 134.95 138.52 115.97 141.47 93.59 140.65 76.88 137.39 67.43 133.67 60.98 129.05"/>
  <polyline class="cls-6" points="171.25 106.11 171.63 107.04 187.04 102.72 195.96 100.9 204.33 98.19 205.8 96.92 205.98 93.36 205.09 86.96 203.54 79.95 202.17 74.89 201.46 72.53 201.8 71.95 204.33 73.78 207.51 74.04 210.05 72.86 211.96 70.9 213.74 67.83 214.89 64.63 215.62 60.66 215.21 56.85 213.05 52.06 210.42 48.34 207.7 45.59 202.56 42.47 198.45 41.62 194.49 42.25 191.9 43.85 189.79 46.43 188.1 50.33 187.46 53.11 187.27 54.46 187.12 54.45 186.83 53.1 185.12 49.45 181.19 45.88 178.06 44.69 174.78 44.29 170.07 45.26 166.56 48.36 164.22 53.16 163.27 57.32 162.68 58.95 161.11 60.79 159.81 64.24 159.65 69.09 160.2 74.33 162.16 78.42 164.58 81.3 167.86 83.29 171.24 84.24 171.97 85.29 172.12 97.73 171.25 106.11"/>
  <polyline class="cls-5" points="161.91 128.56 164.35 136.34 166.8 135.47 170.53 133.73 177.66 136.52 186.32 137.83 190.98 137.48 196.83 135.68 202.33 132.28 206.08 128.34 209.38 121.68 210.21 117.31 210.23 111.34 208.87 104.82 206.63 99.71 205.32 97.65 189.45 102.59 181.66 103.97 172.61 106.76 170.46 107.98 169.89 112.45 168.81 119.03 167.55 123.64 165.98 126.01 161.91 128.56"/>
  <polyline class="cls-3" points="203.8 130.96 204.15 121.67 210.04 118.65 207.84 125.52 203.8 130.96"/>
  <path class="cls-8" d="M160.08,126.61h-.01"/>
  <path class="cls-8" d="M60.98,129.05h-.01"/>
  <path class="cls-9" d="M160.07,126.62c-.35-.48-.73-.97-1.15-1.45-2.8-3.23-9.55-13.76-23.23-20.8-7.47-3.84-17-6.64-29.09-6.64-8.1,0-14.4,1.44-19.8,4.11-6.65,3.28-11.96,8.41-17.65,14.97-1.7,1.97-5.27,7.12-8.17,12.24,0,0,11.18,12.53,48.18,12.53s50.91-14.96,50.91-14.96Z"/>
  <path class="cls-8" d="M75.68,137.02s20.09-12.76,21.7-13.26,9.82-.77,11.88-.77,9.12-.34,10.95.27,14.73,15.26,14.73,15.26"/>
  <path class="cls-8" d="M97.38,123.76s-4.41-7.68-6.08-10.96-4.52-10.96-4.52-10.96"/>
  <path class="cls-8" d="M120.22,123.26s6.61-7.19,8.39-9.63,7.08-9.26,7.08-9.26"/>
  <circle class="cls-2" cx="187.79" cy="112.9" r="4"/>
  <path class="cls-7" d="M210.04,118.65l-12.06,1.83c-.23.03-.4.22-.41.45-.06,1.29-.1,5.44,1.58,7.24,2,2.15,3.55,2.79,4.65,2.79"/>
  <path class="cls-8" d="M206.27,74.25c5.96,0,9.22-9.52,9.22-14.63s-7.45-17.89-17.67-17.89c-8.96,0-10.52,10.54-10.77,13.13,0,.05-.07.05-.08,0-.32-3.07-3.11-10.47-12.82-10.47-10.31,0-11.22,14.23-11.23,14.4,0,0,0,0,0,0-1.26.63-2.61,2.82-3.11,4.54-.5,1.73-.61,9.5.53,12.09,2.31,5.22,5.11,8.02,11.11,9,.91-.02.42,14.59.42,17.85,0,2.43-1.08,4.6-1.08,4.6-.11.17-.23.4-.26.6-.36,2.79-1.52,13.37-3.21,16.69-1.7,3.33-5.5,4.45-5.83,4.53-.02,0-.03,0-.04-.02-.4-.66-.84-1.33-1.36-2.01-.02-.02-.04-.03-.06-.01-.55.58-7.45,7.61-25.09,11.87-6.28,1.52-13.91,2.68-23.1,3.08-39.55,0-50.1-11.63-50.83-12.51-.02-.02-.05-.02-.06,0-1.86,3.26-3.44,6.49-4.09,8.89,0,.02,0,.04.02.05.4.21,4.95,2.64,8.87,4.6,4.1,2.05,6.24,3.43,9.57,4.27l10.37,2.65s5.31,1.28,6.45,1.47c1.14.19,7.83.81,7.83.81,8.82,1.11,17.86,1.3,27.12.62,0,0,6.52-.53,8.3-.78,1.77-.25,8.33-1.69,8.39-1.7,0,0,0,0,0,0l10.98-4.63c.1-.04.16-.07.2-.09.01-.01.02-.01.02-.01l8.51-6.84s.8-.85.87-1.56c0,0,0,0,0,0,0,0,4.83-2.88,6.2-2.88s6.87,3.89,16.48,3.89,21.15-6.59,23-19.19c1.8-12.27-4.39-20.56-4.71-20.98,0-.01-.01-.02,0-.03.07-.14.6-1.19.59-1.66-.17-9.29-4.36-22.51-5.2-25.08-.02-.05.05-.07.07-.02,1.01,1.75,2.68,3.38,5.48,3.38Z"/>
  <path class="cls-8" d="M171.45,84.42s9.45-2.35,12.18-10.58c.02-.07.11-.06.12.01.45,8.49,17.01,13.44,17.01-2.84"/>
  <path class="cls-8" d="M161.47,128.69c1.03,1.59,2.89,8.14,2.89,8.14"/>
  <path class="cls-8" d="M170.53,107.47s13.38-4.71,17.26-4.71,17.67-4.92,17.67-4.92"/>
  <g>
    <path class="cls-1" d="M239.89,125.61c0-30.28,6.26-46.38,16.31-46.38,11.94,0,14.2,19.39,14.2,30.39,0,.79,0,2.84-.07,3.51h-2.77c-1.31,0-5.32.23-7.86.91v-2.38c0-4.88-.8-15.42-3.79-15.42-2.26,0-4.59,9.52-4.59,28.69,0,17.46,2.18,27.1,4.52,27.1,2.48,0,3.64-7.48,3.93-13.72.15-2.61.15-3.86.15-5.22,2.48,0,7.94,0,11-.68,0,29.82-8.81,36.63-15.58,36.63-10.49,0-15.44-16.9-15.44-43.43Z"/>
    <path class="cls-1" d="M274.48,124.14c0-29.48,5.61-44.91,16.53-44.91s16.53,15.42,16.53,44.91-5.61,44.9-16.53,44.9-16.53-15.42-16.53-44.9ZM295.89,124.14c0-19.84-1.89-28.01-4.88-28.01s-4.88,8.16-4.88,28.01,1.89,28.01,4.88,28.01,4.88-8.16,4.88-28.01Z"/>
    <path class="cls-1" d="M326.03,142.28l-2.4,1.02-.07,13.49c0,2.15,0,6.69-.07,10.77-3.64.34-6.85-.11-10.85.57.07-2.38.15-8.39.15-16.67,0-16.33,0-40.48-.07-70.65,3.5,0,9.1.34,12.89.68,14.71,1.13,16.38,13.15,16.38,21.66,0,3.97-.66,15.99-.8,18.94-.29,6.58-1.38,11.79-5.17,15.2,2.99,12.02,5.17,21.55,7.43,30.28-4.37,0-10.05.91-12.09,1.47l-5.32-26.76ZM327.42,125.95c1.6-1.02,2.48-3.17,2.69-6.69.22-3.52.51-8.73.51-13.95,0-3.06-.07-6.8-2.48-8.16-.95-.45-2.55-.79-4.51-.91,0,10.66.07,20.41.07,31.18,1.38-.45,2.4-.68,3.71-1.47Z"/>
    <path class="cls-1" d="M366.59,148.52l-7.94.34c-.58,6.24-1.17,12.59-1.68,19.05-1.53-.23-3.06-.23-4.37-.23-1.82,0-4.59.34-7.21.57,3.28-27.21,7.5-63.84,9.98-87.54,5.02,0,9.98-.34,15.29-.91,2.99,26.31,6.48,62.03,9.18,87.54-1.68,0-7.21.23-11.72,1.13-.44-6.35-.95-13.04-1.53-19.96ZM365.28,132.76c-.8-9.3-1.6-18.48-2.4-26.99-.8,8.96-1.75,17.92-2.62,27.22,1.82-.11,3.42-.23,5.02-.23Z"/>
    <path class="cls-1" d="M383.84,80.93c2.55,0,9.83-.57,11.58-.79-.36,14.85-.44,47.17-.44,69.51,0,1.7.36,2.04,1.24,2.04,1.46,0,6.7-.11,10.19-.23,0,7.6.95,10.32,1.02,16.1-3.93-.11-11.65-.11-12.6-.11-1.97,0-9.54.23-11.43.23.15-26.87.36-52.84.44-86.75Z"/>
    <path class="cls-1" d="M431.54,142.28l-2.4,1.02-.07,13.49c0,2.15,0,6.69-.07,10.77-3.64.34-6.85-.11-10.85.57.07-2.38.15-8.39.15-16.67,0-16.33,0-40.48-.07-70.65,3.5,0,9.1.34,12.89.68,14.71,1.13,16.38,13.15,16.38,21.66,0,3.97-.65,15.99-.8,18.94-.29,6.58-1.38,11.79-5.17,15.2,2.99,12.02,5.17,21.55,7.43,30.28-4.37,0-10.05.91-12.09,1.47l-5.32-26.76ZM432.92,125.95c1.6-1.02,2.48-3.17,2.69-6.69.22-3.52.51-8.73.51-13.95,0-3.06-.07-6.8-2.48-8.16-.95-.45-2.55-.79-4.52-.91,0,10.66.07,20.41.07,31.18,1.38-.45,2.4-.68,3.71-1.47Z"/>
    <path class="cls-1" d="M453.75,149.76c0-18.71.22-32.77.36-51.94-1.24.11-2.48.45-3.71.79,0-1.93.22-4.99.22-6.58,0-2.27-.07-5.67-.22-8.28,6.41-2.15,15.58-3.29,20.03-3.29,2.91,0,5.97.23,8.01.68,0,4.42.15,11.11.29,15.2-1.38-.11-4.08-.23-5.75-.23s-5.03.11-7.65.45c-.15,8.28-.15,12.25-.15,18.26,1.82-.11,4.95-.23,6.12-.23,1.53,0,3.13.23,4.22.45l.07,15.65c-2.04-.45-7.65-.45-10.41-.45v13.72c0,3.97.44,6.12,1.53,7.37,1.24,1.36,3.42,1.59,6.41,1.59,1.68,0,4.15-.23,5.24-.34.07,5.9.58,13.27.73,15.65-2.84.45-6.12.45-8.88.45-12.89,0-16.46-9.19-16.46-18.94Z"/>
    <path class="cls-1" d="M484.55,149.76c0-18.71.22-32.77.36-51.94-1.24.11-2.48.45-3.71.79,0-1.93.22-4.99.22-6.58,0-2.27-.07-5.67-.22-8.28,6.41-2.15,15.58-3.29,20.03-3.29,2.91,0,5.97.23,8.01.68,0,4.42.15,11.11.29,15.2-1.38-.11-4.08-.23-5.75-.23s-5.03.11-7.65.45c-.15,8.28-.15,12.25-.15,18.26,1.82-.11,4.95-.23,6.12-.23,1.53,0,3.13.23,4.22.45l.07,15.65c-2.04-.45-7.65-.45-10.41-.45v13.72c0,3.97.44,6.12,1.53,7.37,1.24,1.36,3.42,1.59,6.41,1.59,1.68,0,4.15-.23,5.24-.34.07,5.9.58,13.27.73,15.65-2.84.45-6.12.45-8.88.45-12.89,0-16.46-9.19-16.46-18.94Z"/>
    <path class="cls-1" d="M516.07,95.11l-3.71.68c.22-2.72.29-4.99.29-6.92,0-2.27-.15-4.31-.36-6.92,3.57-.79,12.53-2.72,18.93-2.72,3.57,0,6.92.68,8.45,1.02,0,4.99,0,8.28-.15,13.95-1.02,0-3.5-.11-5.1-.11-1.46,0-4.37.11-7.06.34,0,7.14-.07,15.54-.15,23.36,2.48,0,5.68-.23,9.47-.34l-.36,15.76c-1.24-.11-5.83-.23-9.1-.23,0,13.83.15,28.69.22,34.24l-11.65.91c0-22.79.22-48.08.29-73.03Z"/>
    <path class="cls-1" d="M550.95,101.91c0-7.26-.22-19.62-.44-22.68,10.41,1.25,14.27,2.15,17.77,3.29,7.28,2.38,10.05,6.24,10.05,16.1v5.9c0,9.3-2.62,14.29-9.03,15.76v.68c8.81,1.59,9.98,7.48,9.98,14.63v6.8c0,17.01-6.04,22.11-19.08,25.17-3.35.8-7.94,1.59-9.76,1.7.22-21.89.51-44.11.51-67.36ZM567.99,103.73c0-4.2-.44-6.01-2.69-6.8-1.24-.45-2.33-.57-3.42-.68,0,2.49.07,5.67.07,9.3,0,1.59-.07,2.84-.07,8.16,5.17-1.25,6.12-4.2,6.12-9.98ZM568.14,141.03c0-1.36-.07-3.52-.15-4.65-.22-5.56-2.11-7.03-6.04-7.71l-.07,23.13c4.22-2.15,6.26-4.42,6.26-10.77Z"/>
    <path class="cls-1" d="M602.65,148.52l-7.94.34c-.58,6.24-1.17,12.59-1.68,19.05-1.53-.23-3.06-.23-4.37-.23-1.82,0-4.59.34-7.21.57,3.28-27.21,7.5-63.84,9.98-87.54,5.02,0,9.98-.34,15.29-.91,2.99,26.31,6.48,62.03,9.18,87.54-1.68,0-7.21.23-11.73,1.13-.44-6.35-.95-13.04-1.53-19.96ZM601.34,132.76c-.8-9.3-1.6-18.48-2.4-26.99-.8,8.96-1.75,17.92-2.62,27.22,1.82-.11,3.42-.23,5.03-.23Z"/>
    <path class="cls-1" d="M619.91,80.71c1.68.23,4.01.34,5.39.34,1.16,0,2.26-.11,6.19-.79-.22,6.92-.36,22.91-.44,34.59,3.57-11.45,7.94-27.33,10.05-34.7,2.84.57,7.72.79,9.54.79,1.02,0,1.75-.11,2.91-.23-1.89,6.46-6.63,20.87-12.38,37.76,4.22,15.87,9.68,34.25,13.25,48.87-1.31,0-8.74,1.02-12.53,1.7-1.68-7.71-5.03-19.96-7.57-30.5l-3.2,9.41-.07,20.98c-1.82-.57-3.57-.57-5.32-.57-1.02,0-4,0-6.34.68.22-22.68.44-53.07.51-88.34Z"/>
    <path class="cls-1" d="M658.35,149.76c0-18.71.22-32.77.36-51.94-1.24.11-2.48.45-3.71.79,0-1.93.22-4.99.22-6.58,0-2.27-.07-5.67-.22-8.28,6.41-2.15,15.58-3.29,20.03-3.29,2.91,0,5.97.23,8.01.68,0,4.42.15,11.11.29,15.2-1.38-.11-4.08-.23-5.75-.23s-5.03.11-7.65.45c-.15,8.28-.15,12.25-.15,18.26,1.82-.11,4.95-.23,6.12-.23,1.53,0,3.13.23,4.22.45l.07,15.65c-2.04-.45-7.65-.45-10.41-.45v13.72c0,3.97.44,6.12,1.53,7.37,1.24,1.36,3.42,1.59,6.41,1.59,1.68,0,4.15-.23,5.24-.34.07,5.9.58,13.27.73,15.65-2.84.45-6.12.45-8.88.45-12.89,0-16.46-9.19-16.46-18.94Z"/>
    <path class="cls-1" d="M701.6,142.28l-2.4,1.02-.07,13.49c0,2.15,0,6.69-.07,10.77-3.64.34-6.85-.11-10.85.57.07-2.38.15-8.39.15-16.67,0-16.33,0-40.48-.07-70.65,3.5,0,9.1.34,12.89.68,14.71,1.13,16.38,13.15,16.38,21.66,0,3.97-.65,15.99-.8,18.94-.29,6.58-1.38,11.79-5.17,15.2,2.99,12.02,5.17,21.55,7.43,30.28-4.37,0-10.05.91-12.09,1.47l-5.32-26.76ZM702.99,125.95c1.6-1.02,2.48-3.17,2.69-6.69.22-3.52.51-8.73.51-13.95,0-3.06-.07-6.8-2.48-8.16-.95-.45-2.55-.79-4.52-.91,0,10.66.07,20.41.07,31.18,1.38-.45,2.4-.68,3.71-1.47Z"/>
    <path class="cls-1" d="M729.78,147.61c-2.48-16.33-6.7-43.09-10.19-66l11.8-.91c1.31,11.68,3.06,25.17,4.88,39.46,1.97-13.15,4.22-26.53,5.68-38.89,3.5,0,7.86-.11,11.65-.34-.8,4.54-9.32,51.48-12.16,66.34l-.07,20.3c-2.84,0-8.59,0-11.58.45v-20.41Z"/>
  </g>
  <path class="cls-2" d="M162.69,58.35c3.85-1.56,8.88-1.01,11.18,2.76-.66-.77-1.36-1.52-2.25-1.99-2.58-1.53-5.9-1.09-8.5.13,0,0-.43-.9-.43-.9h0Z"/>
</svg>