<?xml version="1.0" encoding="UTF-8"?>
<svg xmlns="http://www.w3.org/2000/svg" xmlns:xlink="http://www.w3.org/1999/xlink" viewBox="0 0 306 326.54">
  <defs>
    <style>
      .cls-1, .cls-2 {
        fill: #aed5bd;
      }

      .cls-1, .cls-3, .cls-4, .cls-5, .cls-6, .cls-7 {
        stroke-width: 0px;
      }

      .cls-8 {
        opacity: .6;
      }

      .cls-9 {
        fill: #e5887d;
        stroke-width: 6px;
      }

      .cls-9, .cls-10, .cls-2, .cls-11, .cls-12, .cls-13, .cls-14 {
        stroke: #221f20;
        stroke-miterlimit: 10;
      }

      .cls-10 {
        fill: none;
      }

      .cls-10, .cls-2, .cls-11, .cls-12, .cls-13, .cls-14 {
        stroke-width: 3px;
      }

      .cls-3 {
        fill: #221f20;
      }

      .cls-4, .cls-13 {
        fill: #fef9f2;
      }

      .cls-11 {
        fill: #2c1211;
      }

      .cls-12 {
        fill: #d2bca0;
      }

      .cls-5 {
        fill: #fbf9d2;
      }

      .cls-6 {
        fill: #819f8e;
      }

      .cls-14 {
        fill: #eab2cd;
      }

      .cls-7 {
        fill: #603635;
      }
    </style>
  </defs>
  <g id="Layer_2" data-name="Layer 2">
    <image class="cls-8" width="300" height="300" transform="translate(3 23.54)" xlink:href="Untitled_Artwork.png"/>
  </g>
  <g id="Layer_1" data-name="Layer 1">
    <circle class="cls-9" cx="153" cy="173.54" r="150"/>
  </g>
  <g id="Layer_3" data-name="Layer 3">
    <rect class="cls-1" x="125.56" y="255.32" width="45.56" height="11.48"/>
    <polygon class="cls-5" points="178.45 317.04 150.28 319.54 106.4 312.66 80.43 301.91 108.53 261.25 148.33 266.8 182.56 267.89 218.44 304.56 178.45 317.04"/>
    <polygon class="cls-7" points="205.1 279.06 188.51 266.93 179.35 263.97 172.59 265.62 171.7 268.71 180.44 272 205.1 290.95 205.1 279.06"/>
    <polygon class="cls-7" points="215.55 304.47 223.67 299.83 202.56 277.13 203.25 289.61 215.55 304.47"/>
    <polygon class="cls-7" points="87.9 272.14 103.78 259.38 112.56 256.28 119.04 258.01 119.89 261.26 111.51 264.71 108.53 267.89 87.9 272.14"/>
    <polygon class="cls-7" points="79.91 301.64 68.67 294.61 88.58 270.96 109.54 266.15 79.91 301.64"/>
    <rect class="cls-4" x="87.85" y="31.99" width="77.63" height="59.11" transform="translate(-12.28 38.63) rotate(-16.55)"/>
    <path class="cls-10" d="M221.02,302.71c-1.26.71-3.03,1.65-5.27,2.71-11.24,5.38-34.44,14.12-66.45,14.12-29.92,0-55.25-10.49-69.39-17.9-4.24-2.21-7.48-4.15-9.53-5.45-1.4-.88-1.71-2.78-.66-4.06,6.74-8.27,29.79-35.35,42.84-35.85,0,0,8.66.45,8.66,5.04s21.85,16,31.78,16c6.37,0,12.5-5.5,17.64-9.43.75-.58,1.48-1.12,2.19-1.61,1.99-1.37,3.79-2.3,5.36-2.3,5.92,0,33.03,16.75,42.96,32.45l1.12,2.48c.64,1.4.1,3.05-1.25,3.8Z"/>
    <path class="cls-10" d="M79.9,301.65h0c.61-.74,25.07-29.87,30.22-35.57,5.22-5.78,11.09-4.76,11.09-4.76"/>
    <path class="cls-12" d="M172.83,266.28c-.71.49-1.44,1.03-2.19,1.61-5.14,3.93-11.27,9.43-17.64,9.43-9.93,0-31.78-11.41-31.78-16,0,0,.02-5.04,4.62-5.04s8.16,10.41,25.86,10.41,13.78-9.66,18.77-10.36c.19-.04.39-.05.61-.05,5.88,0,5.15,7.46,1.75,10Z"/>
    <path class="cls-2" d="M170.38,255.32c-.76-8.12-1.1-18.1-1.27-23.74-.29-9.69,1.45-25.74,4.66-28.01.03-.03.07-.05.11-.07.02-.01.03-.01.03-.01.11-.06.23-.09.35-.12,34.41-9.47,71.3-64.16,55.74-104.39-15.56-40.22-54.96-36.29-63.11-35.85-8.15.45-66.52,14.82-74.08,44.15-7.55,29.33-3.7,47.11,6.08,64.15,8.77,15.27,16.1,20.75,17.53,21.72.17.12.31.26.43.43.39.53,1.34,1.86,2.52,3.6,0,0,.03.04.09.11,1.27,1.89,2.81,4.24,4.21,6.58,3.11,5.23,7.67,20.44,5.89,35.56-1,8.45-1.39,12.5-2.17,16.28"/>
    <g id="Layer_5" data-name="Layer 5">
      <path class="cls-6" d="M168.17,217.37l1.88-8.44.59-3.61-5.59,1.26-11.45,1.36-9.14-.67-13.66-2.83-6.51-2.72,4.84,13.06s5.29,10.22,19.91,10.22,19.12-7.61,19.12-7.61Z"/>
    </g>
    <path class="cls-10" d="M170.64,267.89s4.03.84,8.63,2.91,22.16,16.8,28.23,22.28,8.25,12.35,8.25,12.35"/>
    <path class="cls-10" d="M119.37,197.18s7.31,9.72,37.73,9.72c6.86,0,16.78-3.4,16.78-3.4"/>
    <ellipse class="cls-3" cx="126.38" cy="112.76" rx="9.15" ry="12.22" transform="translate(-14.78 19.16) rotate(-8.19)"/>
    <ellipse class="cls-3" cx="197.05" cy="102.59" rx="8.47" ry="11.95" transform="translate(-12.61 29.12) rotate(-8.19)"/>
    <path class="cls-3" d="M131.93,134.03c.95.35.64.57.69.84-.16,8.74,6.25,16.07,14.33,18.82,8.49,3.12,17.73,3.08,26.67,2.38,8.77-.55,17.84-3.19,23.9-9.77,4.48-4.81,6.86-11.36,7.43-17.88.15-1.65.19-3.31.12-4.97-.05-.55.08-1.08,1.04-1.75l.65-.09c1.07.48,1.28,1.09,1.28,1.69.21,4.19-.23,8.39-1.34,12.45-4.07,15.39-17.77,22.76-32.82,23.63-13.69.86-30.55.34-39.67-11.52-2.75-3.75-4.24-8.4-4.14-13.05.06-.31-.22-.66.79-.91l1.08.13h0Z"/>
    <path class="cls-11" d="M201.04,144.92s-1.6,19.96-6.6,31.4c-8.79,22.25-17.59,25.71-34.81,29.9-2.06.5-4.27-.13-5.68-1.71-10.22-11.46-17.8-56.16-17.8-56.16,0,0,8.73,10.54,28.88,9.67s24.37-1.46,36.01-13.09Z"/>
    <path class="cls-14" d="M194.44,176.32s-2.67-7.89-20.44-7.89-27.16,21.93-27.16,21.93l5.95,12.69s.9,1.67,2.54,2.65,1.84,1.09,3.86.61,11.9-2.8,15.78-5.05,7.79-4.71,10.33-8.18,7.37-10.42,9.15-16.76Z"/>
    <path class="cls-3" d="M164.62,128.34c.01.13.02.25.02.38v-.24c.01.73-.09,1.45-.32,2.14-.08.24.14.5.32.6.26.16.67.19.97.15.38-.05.78-.16,1.09-.38l.26-.21c.14-.13.23-.29.27-.47.3-.89.37-1.82.28-2.75-.02-.25-.39-.42-.58-.48-.33-.09-.76-.07-1.09.03s-.71.25-.96.52l-.18.23c-.09.15-.12.31-.08.47h0Z"/>
    <path class="cls-3" d="M176.03,127.97c.1.14.19.29.27.44l-.11-.21c.32.61.5,1.27.53,1.96v-.24s0,.09,0,.13c-.03.13,0,.24.06.34.05.12.13.21.26.27.26.16.67.19.97.16.38-.05.78-.16,1.09-.38l.26-.21c.14-.13.23-.29.27-.47,0-.53-.06-1.06-.22-1.57s-.41-.99-.71-1.42c-.16-.22-.56-.31-.8-.33-.36-.03-.81.05-1.14.21-.47.23-1.13.74-.73,1.31h0Z"/>
    <path class="cls-13" d="M168.37,63.04s-6.01-14.27-9.49-25.5"/>
    <path class="cls-10" d="M87.88,69.94c6.76,12.81,9.05,28.33,9.05,28.33"/>
    <path class="cls-13" d="M164.37,24.96c0,5.02-2.13,9.53-5.49,12.58-2.81,2.55-6.48,4.1-10.49,4.1-2.26,0-4.41-.49-6.36-1.38-3.28,13-14.33,22.57-27.44,22.57-4.33,0-8.44-1.04-12.12-2.92-3.23,6.1-8.38,10.04-14.19,10.04-.13,0-.27,0-.4-.01-9.61-.3-17.32-11.39-17.32-25.03s7.93-25.04,17.72-25.04c.08,0,.17,0,.25.01,4.39-10.82,14.4-18.38,26.06-18.38,9.1,0,17.2,4.61,22.4,11.77,2.9-3.09,6.93-5,11.4-5,8.83,0,15.98,7.47,15.98,16.69Z"/>
  </g>
</svg>